<svg width="60" height="61" viewBox="0 0 60 61" fill="none" xmlns="http://www.w3.org/2000/svg">
<circle cx="30" cy="30.5" r="30" fill="#EB6C27"/>
<path fill-rule="evenodd" clip-rule="evenodd" d="M30 20.5C26.13 20.5 23 23.63 23 27.5C23 32.75 30 40.5 30 40.5C30 40.5 37 32.75 37 27.5C37 23.63 33.87 20.5 30 20.5ZM25 27.5C25 24.74 27.24 22.5 30 22.5C32.76 22.5 35 24.74 35 27.5C35 30.38 32.12 34.69 30 37.38C27.92 34.71 25 30.35 25 27.5ZM27.5 27.5C27.5 26.1193 28.6193 25 30 25C30.8932 25 31.7185 25.4765 32.1651 26.25C32.6116 27.0235 32.6116 27.9765 32.1651 28.75C31.7185 29.5235 30.8932 30 30 30C28.6193 30 27.5 28.8807 27.5 27.5Z" fill="white"/>
</svg>
