<svg width="60" height="61" viewBox="0 0 60 61" fill="none" xmlns="http://www.w3.org/2000/svg">
<circle cx="30" cy="30.5" r="30" fill="#EB6C27"/>
<path fill-rule="evenodd" clip-rule="evenodd" d="M21.1111 20.5H25C25.6111 20.5 26.1111 21 26.1111 21.6111C26.1111 23 26.3333 24.3333 26.7444 25.5778C26.8667 25.9667 26.7778 26.4 26.4667 26.7111L24.0222 29.1556C25.6222 32.3 28.2 34.8667 31.3444 36.4778L33.7889 34.0333C34.0111 33.8222 34.2889 33.7111 34.5778 33.7111C34.6889 33.7111 34.8111 33.7222 34.9222 33.7667C36.1667 34.1778 37.5111 34.4 38.8889 34.4C39.5 34.4 40 34.9 40 35.5111V39.3889C40 40 39.5 40.5 38.8889 40.5C28.4556 40.5 20 32.0444 20 21.6111C20 21 20.5 20.5 21.1111 20.5ZM23.9333 22.722C24 23.7109 24.1666 24.6776 24.4333 25.5998L23.1 26.9331C22.6444 25.5998 22.3555 24.1887 22.2555 22.722H23.9333ZM34.8887 36.0778C35.8331 36.3445 36.7998 36.5111 37.7776 36.5778V38.2334C36.3109 38.1334 34.8998 37.8445 33.5553 37.4L34.8887 36.0778Z" fill="white"/>
</svg>
